<svg xmlns="http://www.w3.org/2000/svg" xmlns:xlink="http://www.w3.org/1999/xlink" width="24" height="24" viewBox="0 0 24 24">
    <defs>
        <path id="a" d="M253 211a10 10 0 0 1 10 10c0 5.523-4.477 10-10 10a10 10 0 1 1 0-20zm-1 14.5l7-7-1.41-1.41-5.59 5.58-3.09-3.08-1.41 1.41 4.5 4.5z"/>
    </defs>
    <g fill="none" fill-rule="nonzero" transform="translate(-241 -209)">
        <use fill="#0CA86D" fill-rule="evenodd" xlink:href="#a"/>
        <path stroke="#FFF" stroke-width="2" d="M253 210a11 11 0 0 1 11 11c0 6.075-4.925 11-11 11a11 11 0 0 1 0-22zm-1 14.086l-.707.707h1.414l-.707-.707zm0 0l-3.793-3.793v1.414l1.41-1.41-1.413.001 3.797 3.784 6.295-6.284h-1.413l1.41 1.41v-1.415L252 224.086z"/>
    </g>
</svg>
