<svg xmlns="http://www.w3.org/2000/svg" xmlns:xlink="http://www.w3.org/1999/xlink" width="24" height="24" viewBox="0 0 24 24">
    <defs>
        <path id="a" d="M292 211c5.53 0 10 4.47 10 10s-4.47 10-10 10-10-4.47-10-10 4.47-10 10-10zm3.59 5l-3.59 3.59-3.59-3.59-1.41 1.41 3.59 3.59-3.59 3.59 1.41 1.41 3.59-3.59 3.59 3.59 1.41-1.41-3.59-3.59 3.59-3.59-1.41-1.41z"/>
    </defs>
    <g fill="none" fill-rule="nonzero" transform="translate(-280 -209)">
        <use fill="#F3690A" fill-rule="evenodd" xlink:href="#a"/>
        <path stroke="#FFF" stroke-width="2" d="M292 210c6.082 0 11 4.918 11 11s-4.918 11-11 11-11-4.918-11-11 4.918-11 11-11zm2.883 6.707l1.41 1.41v-1.414L291.996 221l4.297 4.297v-1.414l-1.41 1.41h1.414L292 220.996l-4.297 4.297h1.414l-1.41-1.41v1.414l4.297-4.297-4.297-4.297v1.414l1.41-1.41h-1.414l4.297 4.297 4.297-4.297h-1.414z"/>
    </g>
</svg>
